<?xml version="1.0" encoding="utf-8"?>
<!-- Generator: Adobe Illustrator 16.0.0, SVG Export Plug-In . SVG Version: 6.00 Build 0)  -->
<!DOCTYPE svg PUBLIC "-//W3C//DTD SVG 1.1//EN" "http://www.w3.org/Graphics/SVG/1.1/DTD/svg11.dtd">
<svg version="1.1" id="Layer_1" xmlns="http://www.w3.org/2000/svg" xmlns:xlink="http://www.w3.org/1999/xlink" x="0px" y="0px"
	 width="480px" height="240px" viewBox="0 0 480 240" enable-background="new 0 0 480 240" xml:space="preserve">
<g id="b" opacity="0.2">
	<g transform="matrix(-1 0 0 1 0 0)">
		<path id="s" fill-opacity="0.06" d="M40-20L0,0l40,20V-20z"/>
	</g>
	<g>
		<path id="s_1_" fill-opacity="0.09" d="M0,0l40,20L0,40V0z"/>
	</g>
	<g transform="matrix(-1 0 0 1 0 0)">
		<path id="s_2_" fill-opacity="0.09" d="M40,20L0,40l40,20V20z"/>
	</g>
	<g>
		<path id="s_3_" fill-opacity="0.09" d="M0,40l40,20L0,80V40z"/>
	</g>
	<g transform="matrix(-1 0 0 1 0 0)">
		<path id="s_4_" fill-opacity="0.12" d="M40,60L0,80l40,20V60z"/>
	</g>
	<g>
		<path id="s_5_" fill-opacity="0.06" d="M0,80l40,20L0,120V80z"/>
	</g>
	<g transform="matrix(-1 0 0 1 0 0)">
		<path id="s_6_" fill-opacity="0.06" d="M40,100L0,120l40,20V100z"/>
	</g>
	<g>
		<path id="s_7_" fill-opacity="0.09" d="M40-20L80,0L40,20V-20z"/>
	</g>
	<g transform="matrix(-1 0 0 1 0 0)">
		<path id="s_8_" fill-opacity="0.12" d="M80,0L40,20l40,20V0z"/>
	</g>
	<g>
		<path id="s_9_" fill-opacity="0.09" d="M40,20l40,20L40,60V20z"/>
	</g>
	<g transform="matrix(-1 0 0 1 0 0)">
		<path id="s_10_" fill-opacity="0.06" d="M80,40L40,60l40,20V40z"/>
	</g>
	<g>
		<path id="s_11_" fill-opacity="0.03" d="M40,60l40,20l-40,20V60z"/>
	</g>
	<g transform="matrix(-1 0 0 1 0 0)">
		<path id="s_12_" fill-opacity="0.06" d="M80,80l-40,20l40,20V80z"/>
	</g>
	<g>
		<path id="s_13_" fill-opacity="0.09" d="M40,100l40,20l-40,20V100z"/>
	</g>
	<g transform="matrix(-1 0 0 1 0 0)">
		<path id="s_14_" fill-opacity="0.06" d="M120-20L80,0l40,20V-20z"/>
	</g>
	<g>
		<path id="s_15_" fill-opacity="0.06" d="M80,0l40,20L80,40V0z"/>
	</g>
	<g transform="matrix(-1 0 0 1 0 0)">
		<path id="s_16_" fill-opacity="0.09" d="M120,20L80,40l40,20V20z"/>
	</g>
	<g>
		<path id="s_17_" fill-opacity="0.06" d="M80,40l40,20L80,80V40z"/>
	</g>
	<g transform="matrix(-1 0 0 1 0 0)">
		<path id="s_18_" fill-opacity="0.03" d="M120,60L80,80l40,20V60z"/>
	</g>
	<g>
		<path id="s_19_" fill-opacity="0.06" d="M80,80l40,20l-40,20V80z"/>
	</g>
	<g transform="matrix(-1 0 0 1 0 0)">
		<path id="s_20_" fill-opacity="0.06" d="M120,100l-40,20l40,20V100z"/>
	</g>
	<g>
		<path id="s_21_" fill-opacity="0.06" d="M120-20l40,20l-40,20V-20z"/>
	</g>
	<g transform="matrix(-1 0 0 1 0 0)">
		<path id="s_22_" fill-opacity="0.06" d="M160,0l-40,20l40,20V0z"/>
	</g>
	<g>
		<path id="s_23_" fill-opacity="0.03" d="M120,20l40,20l-40,20V20z"/>
	</g>
	<g transform="matrix(-1 0 0 1 0 0)">
		<path id="s_24_" fill-opacity="0.09" d="M160,40l-40,20l40,20V40z"/>
	</g>
	<g>
		<path id="s_25_" fill-opacity="0.09" d="M120,60l40,20l-40,20V60z"/>
	</g>
	<g transform="matrix(-1 0 0 1 0 0)">
		<path id="s_26_" fill-opacity="0.03" d="M160,80l-40,20l40,20V80z"/>
	</g>
	<g>
		<path id="s_27_" fill-opacity="0.06" d="M120,100l40,20l-40,20V100z"/>
	</g>
	<g transform="matrix(-1 0 0 1 0 0)">
		<path id="s_28_" fill-opacity="0.09" d="M200-20L160,0l40,20V-20z"/>
	</g>
	<g>
		<path id="s_29_" fill-opacity="0.12" d="M160,0l40,20l-40,20V0z"/>
	</g>
	<g transform="matrix(-1 0 0 1 0 0)">
		<path id="s_30_" fill-opacity="0.03" d="M200,20l-40,20l40,20V20z"/>
	</g>
	<g>
		<path id="s_31_" fill-opacity="0.06" d="M160,40l40,20l-40,20V40z"/>
	</g>
	<g transform="matrix(-1 0 0 1 0 0)">
		<path id="s_32_" fill-opacity="0.09" d="M200,60l-40,20l40,20V60z"/>
	</g>
	<g>
		<path id="s_33_" fill-opacity="0.03" d="M160,80l40,20l-40,20V80z"/>
	</g>
	<g transform="matrix(-1 0 0 1 0 0)">
		<path id="s_34_" fill-opacity="0.09" d="M200,100l-40,20l40,20V100z"/>
	</g>
	<g>
		<path id="s_35_" fill-opacity="0.06" d="M200-20l40,20l-40,20V-20z"/>
	</g>
	<g transform="matrix(-1 0 0 1 0 0)">
		<path id="s_36_" fill-opacity="0.06" d="M240,0l-40,20l40,20V0z"/>
	</g>
	<g>
		<path id="s_37_" fill-opacity="0.12" d="M200,20l40,20l-40,20V20z"/>
	</g>
	<g transform="matrix(-1 0 0 1 0 0)">
		<path id="s_38_" fill-opacity="0.06" d="M240,40l-40,20l40,20V40z"/>
	</g>
	<g>
		<path id="s_39_" fill-opacity="0.09" d="M200,60l40,20l-40,20V60z"/>
	</g>
	<g transform="matrix(-1 0 0 1 0 0)">
		<path id="s_40_" fill-opacity="0.06" d="M240,80l-40,20l40,20V80z"/>
	</g>
	<g>
		<path id="s_41_" fill-opacity="0.06" d="M200,100l40,20l-40,20V100z"/>
	</g>
</g>
<g opacity="0.2">
	<g id="b_1_">
		<g transform="matrix(-1 0 0 1 0 0)">
			<path id="s_42_" fill-opacity="0.06" d="M200,100l40,20l-40,20V100z"/>
		</g>
		<g>
			<path id="s_43_" fill-opacity="0.09" d="M240,120l-40,20l40,20V120z"/>
		</g>
		<g transform="matrix(-1 0 0 1 0 0)">
			<path id="s_44_" fill-opacity="0.09" d="M200,140l40,20l-40,20V140z"/>
		</g>
		<g>
			<path id="s_45_" fill-opacity="0.09" d="M240,160l-40,20l40,20V160z"/>
		</g>
		<g transform="matrix(-1 0 0 1 0 0)">
			<path id="s_46_" fill-opacity="0.12" d="M200,180l40,20l-40,20V180z"/>
		</g>
		<g>
			<path id="s_47_" fill-opacity="0.06" d="M240,200l-40,20l40,20V200z"/>
		</g>
		<g transform="matrix(-1 0 0 1 0 0)">
			<path id="s_48_" fill-opacity="0.06" d="M200,220l40,20l-40,20V220z"/>
		</g>
		<g>
			<path id="s_49_" fill-opacity="0.09" d="M200,100l-40,20l40,20V100z"/>
		</g>
		<g transform="matrix(-1 0 0 1 0 0)">
			<path id="s_50_" fill-opacity="0.12" d="M160,120l40,20l-40,20V120z"/>
		</g>
		<g>
			<path id="s_51_" fill-opacity="0.09" d="M200,140l-40,20l40,20V140z"/>
		</g>
		<g transform="matrix(-1 0 0 1 0 0)">
			<path id="s_52_" fill-opacity="0.06" d="M160,160l40,20l-40,20V160z"/>
		</g>
		<g>
			<path id="s_53_" fill-opacity="0.03" d="M200,180l-40,20l40,20V180z"/>
		</g>
		<g transform="matrix(-1 0 0 1 0 0)">
			<path id="s_54_" fill-opacity="0.06" d="M160,200l40,20l-40,20V200z"/>
		</g>
		<g>
			<path id="s_55_" fill-opacity="0.09" d="M200,220l-40,20l40,20V220z"/>
		</g>
		<g transform="matrix(-1 0 0 1 0 0)">
			<path id="s_56_" fill-opacity="0.06" d="M120,100l40,20l-40,20V100z"/>
		</g>
		<g>
			<path id="s_57_" fill-opacity="0.06" d="M160,120l-40,20l40,20V120z"/>
		</g>
		<g transform="matrix(-1 0 0 1 0 0)">
			<path id="s_58_" fill-opacity="0.09" d="M120,140l40,20l-40,20V140z"/>
		</g>
		<g>
			<path id="s_59_" fill-opacity="0.06" d="M160,160l-40,20l40,20V160z"/>
		</g>
		<g transform="matrix(-1 0 0 1 0 0)">
			<path id="s_60_" fill-opacity="0.03" d="M120,180l40,20l-40,20V180z"/>
		</g>
		<g>
			<path id="s_61_" fill-opacity="0.06" d="M160,200l-40,20l40,20V200z"/>
		</g>
		<g transform="matrix(-1 0 0 1 0 0)">
			<path id="s_62_" fill-opacity="0.06" d="M120,220l40,20l-40,20V220z"/>
		</g>
		<g>
			<path id="s_63_" fill-opacity="0.06" d="M120,100l-40,20l40,20V100z"/>
		</g>
		<g transform="matrix(-1 0 0 1 0 0)">
			<path id="s_64_" fill-opacity="0.06" d="M80,120l40,20l-40,20V120z"/>
		</g>
		<g>
			<path id="s_65_" fill-opacity="0.03" d="M120,140l-40,20l40,20V140z"/>
		</g>
		<g transform="matrix(-1 0 0 1 0 0)">
			<path id="s_66_" fill-opacity="0.09" d="M80,160l40,20l-40,20V160z"/>
		</g>
		<g>
			<path id="s_67_" fill-opacity="0.09" d="M120,180l-40,20l40,20V180z"/>
		</g>
		<g transform="matrix(-1 0 0 1 0 0)">
			<path id="s_68_" fill-opacity="0.03" d="M80,200l40,20l-40,20V200z"/>
		</g>
		<g>
			<path id="s_69_" fill-opacity="0.06" d="M120,220l-40,20l40,20V220z"/>
		</g>
		<g transform="matrix(-1 0 0 1 0 0)">
			<path id="s_70_" fill-opacity="0.09" d="M40,100l40,20l-40,20V100z"/>
		</g>
		<g>
			<path id="s_71_" fill-opacity="0.12" d="M80,120l-40,20l40,20V120z"/>
		</g>
		<g transform="matrix(-1 0 0 1 0 0)">
			<path id="s_72_" fill-opacity="0.03" d="M40,140l40,20l-40,20V140z"/>
		</g>
		<g>
			<path id="s_73_" fill-opacity="0.06" d="M80,160l-40,20l40,20V160z"/>
		</g>
		<g transform="matrix(-1 0 0 1 0 0)">
			<path id="s_74_" fill-opacity="0.09" d="M40,180l40,20l-40,20V180z"/>
		</g>
		<g>
			<path id="s_75_" fill-opacity="0.03" d="M80,200l-40,20l40,20V200z"/>
		</g>
		<g transform="matrix(-1 0 0 1 0 0)">
			<path id="s_76_" fill-opacity="0.09" d="M40,220l40,20l-40,20V220z"/>
		</g>
		<g>
			<path id="s_77_" fill-opacity="0.06" d="M40,100L0,120l40,20V100z"/>
		</g>
		<g transform="matrix(-1 0 0 1 0 0)">
			<path id="s_78_" fill-opacity="0.06" d="M0,120l40,20L0,160V120z"/>
		</g>
		<g>
			<path id="s_79_" fill-opacity="0.12" d="M40,140L0,160l40,20V140z"/>
		</g>
		<g transform="matrix(-1 0 0 1 0 0)">
			<path id="s_80_" fill-opacity="0.06" d="M0,160l40,20L0,200V160z"/>
		</g>
		<g>
			<path id="s_81_" fill-opacity="0.09" d="M40,180L0,200l40,20V180z"/>
		</g>
		<g transform="matrix(-1 0 0 1 0 0)">
			<path id="s_82_" fill-opacity="0.06" d="M0,200l40,20L0,240V200z"/>
		</g>
		<g transform="matrix(-1 0 0 1 0 0)">
			<path id="s_83_" fill-opacity="0.06" d="M40,220L0,240l40,20V220z"/>
		</g>
	</g>
	<g>
		<g id="b_2_">
			<g transform="matrix(-1 0 0 1 0 0)">
				<path id="s_84_" fill-opacity="0.06" d="M440,100l40-20l-40-20V100z"/>
			</g>
			<g>
				<path id="s_85_" fill-opacity="0.09" d="M480,80l-40-20l40-20V80z"/>
			</g>
			<g transform="matrix(-1 0 0 1 0 0)">
				<path id="s_86_" fill-opacity="0.09" d="M440,60l40-20l-40-20V60z"/>
			</g>
			<g>
				<path id="s_87_" fill-opacity="0.09" d="M480,40l-40-20l40-20V40z"/>
			</g>
			<g transform="matrix(-1 0 0 1 0 0)">
				<path id="s_88_" fill-opacity="0.12" d="M440,20l40-20l-40-20V20z"/>
			</g>
			<g>
				<path id="s_89_" fill-opacity="0.06" d="M480,0l-40-20l40-20V0z"/>
			</g>
			<g transform="matrix(-1 0 0 1 0 0)">
				<path id="s_90_" fill-opacity="0.06" d="M440-20l40-20l-40-20V-20z"/>
			</g>
			<g>
				<path id="s_91_" fill-opacity="0.09" d="M440,100l-40-20l40-20V100z"/>
			</g>
			<g transform="matrix(-1 0 0 1 0 0)">
				<path id="s_92_" fill-opacity="0.12" d="M400,80l40-20l-40-20V80z"/>
			</g>
			<g>
				<path id="s_93_" fill-opacity="0.09" d="M440,60l-40-20l40-20V60z"/>
			</g>
			<g transform="matrix(-1 0 0 1 0 0)">
				<path id="s_94_" fill-opacity="0.06" d="M400,40l40-20L400,0V40z"/>
			</g>
			<g>
				<path id="s_95_" fill-opacity="0.03" d="M440,20L400,0l40-20V20z"/>
			</g>
			<g transform="matrix(-1 0 0 1 0 0)">
				<path id="s_96_" fill-opacity="0.06" d="M400,0l40-20l-40-20V0z"/>
			</g>
			<g>
				<path id="s_97_" fill-opacity="0.09" d="M440-20l-40-20l40-20V-20z"/>
			</g>
			<g transform="matrix(-1 0 0 1 0 0)">
				<path id="s_98_" fill-opacity="0.06" d="M360,100l40-20l-40-20V100z"/>
			</g>
			<g>
				<path id="s_99_" fill-opacity="0.06" d="M400,80l-40-20l40-20V80z"/>
			</g>
			<g transform="matrix(-1 0 0 1 0 0)">
				<path id="s_100_" fill-opacity="0.09" d="M360,60l40-20l-40-20V60z"/>
			</g>
			<g>
				<path id="s_101_" fill-opacity="0.06" d="M400,40l-40-20l40-20V40z"/>
			</g>
			<g transform="matrix(-1 0 0 1 0 0)">
				<path id="s_102_" fill-opacity="0.03" d="M360,20l40-20l-40-20V20z"/>
			</g>
			<g>
				<path id="s_103_" fill-opacity="0.06" d="M400,0l-40-20l40-20V0z"/>
			</g>
			<g transform="matrix(-1 0 0 1 0 0)">
				<path id="s_104_" fill-opacity="0.06" d="M360-20l40-20l-40-20V-20z"/>
			</g>
			<g>
				<path id="s_105_" fill-opacity="0.06" d="M360,100l-40-20l40-20V100z"/>
			</g>
			<g transform="matrix(-1 0 0 1 0 0)">
				<path id="s_106_" fill-opacity="0.06" d="M320,80l40-20l-40-20V80z"/>
			</g>
			<g>
				<path id="s_107_" fill-opacity="0.03" d="M360,60l-40-20l40-20V60z"/>
			</g>
			<g transform="matrix(-1 0 0 1 0 0)">
				<path id="s_108_" fill-opacity="0.09" d="M320,40l40-20L320,0V40z"/>
			</g>
			<g>
				<path id="s_109_" fill-opacity="0.09" d="M360,20L320,0l40-20V20z"/>
			</g>
			<g transform="matrix(-1 0 0 1 0 0)">
				<path id="s_110_" fill-opacity="0.03" d="M320,0l40-20l-40-20V0z"/>
			</g>
			<g>
				<path id="s_111_" fill-opacity="0.06" d="M360-20l-40-20l40-20V-20z"/>
			</g>
			<g transform="matrix(-1 0 0 1 0 0)">
				<path id="s_112_" fill-opacity="0.09" d="M280,100l40-20l-40-20V100z"/>
			</g>
			<g>
				<path id="s_113_" fill-opacity="0.12" d="M320,80l-40-20l40-20V80z"/>
			</g>
			<g transform="matrix(-1 0 0 1 0 0)">
				<path id="s_114_" fill-opacity="0.03" d="M280,60l40-20l-40-20V60z"/>
			</g>
			<g>
				<path id="s_115_" fill-opacity="0.06" d="M320,40l-40-20l40-20V40z"/>
			</g>
			<g transform="matrix(-1 0 0 1 0 0)">
				<path id="s_116_" fill-opacity="0.09" d="M280,20l40-20l-40-20V20z"/>
			</g>
			<g>
				<path id="s_117_" fill-opacity="0.03" d="M320,0l-40-20l40-20V0z"/>
			</g>
			<g transform="matrix(-1 0 0 1 0 0)">
				<path id="s_118_" fill-opacity="0.09" d="M280-20l40-20l-40-20V-20z"/>
			</g>
			<g>
				<path id="s_119_" fill-opacity="0.06" d="M280,100l-40-20l40-20V100z"/>
			</g>
			<g transform="matrix(-1 0 0 1 0 0)">
				<path id="s_120_" fill-opacity="0.06" d="M240,80l40-20l-40-20V80z"/>
			</g>
			<g>
				<path id="s_121_" fill-opacity="0.12" d="M280,60l-40-20l40-20V60z"/>
			</g>
			<g transform="matrix(-1 0 0 1 0 0)">
				<path id="s_122_" fill-opacity="0.06" d="M240,40l40-20L240,0V40z"/>
			</g>
			<g>
				<path id="s_123_" fill-opacity="0.09" d="M280,20L240,0l40-20V20z"/>
			</g>
			<g transform="matrix(-1 0 0 1 0 0)">
				<path id="s_124_" fill-opacity="0.06" d="M240,0l40-20l-40-20V0z"/>
			</g>
			<g transform="matrix(-1 0 0 -1 0 0)">
				<path id="s_125_" fill-opacity="0.06" d="M280-20l-40-20l40-20V-20z"/>
			</g>
		</g>
		<g>
			<g id="b_3_">
				<g transform="matrix(-1 0 0 1 0 0)">
					<path id="s_126_" fill-opacity="0.06" d="M280,180l-40-20l40-20V180z"/>
				</g>
				<g>
					<path id="s_127_" fill-opacity="0.09" d="M240,160l40-20l-40-20V160z"/>
				</g>
				<g transform="matrix(-1 0 0 1 0 0)">
					<path id="s_128_" fill-opacity="0.09" d="M280,140l-40-20l40-20V140z"/>
				</g>
				<g>
					<path id="s_129_" fill-opacity="0.09" d="M240,120l40-20l-40-20V120z"/>
				</g>
				<g transform="matrix(-1 0 0 1 0 0)">
					<path id="s_130_" fill-opacity="0.12" d="M280,100l-40-20l40-20V100z"/>
				</g>
				<g>
					<path id="s_131_" fill-opacity="0.06" d="M240,80l40-20l-40-20V80z"/>
				</g>
				<g transform="matrix(-1 0 0 1 0 0)">
					<path id="s_132_" fill-opacity="0.06" d="M280,60l-40-20l40-20V60z"/>
				</g>
				<g>
					<path id="s_133_" fill-opacity="0.09" d="M280,180l40-20l-40-20V180z"/>
				</g>
				<g transform="matrix(-1 0 0 1 0 0)">
					<path id="s_134_" fill-opacity="0.12" d="M320,160l-40-20l40-20V160z"/>
				</g>
				<g>
					<path id="s_135_" fill-opacity="0.09" d="M280,140l40-20l-40-20V140z"/>
				</g>
				<g transform="matrix(-1 0 0 1 0 0)">
					<path id="s_136_" fill-opacity="0.06" d="M320,120l-40-20l40-20V120z"/>
				</g>
				<g>
					<path id="s_137_" fill-opacity="0.03" d="M280,100l40-20l-40-20V100z"/>
				</g>
				<g transform="matrix(-1 0 0 1 0 0)">
					<path id="s_138_" fill-opacity="0.06" d="M320,80l-40-20l40-20V80z"/>
				</g>
				<g>
					<path id="s_139_" fill-opacity="0.09" d="M280,60l40-20l-40-20V60z"/>
				</g>
				<g transform="matrix(-1 0 0 1 0 0)">
					<path id="s_140_" fill-opacity="0.06" d="M360,180l-40-20l40-20V180z"/>
				</g>
				<g>
					<path id="s_141_" fill-opacity="0.06" d="M320,160l40-20l-40-20V160z"/>
				</g>
				<g transform="matrix(-1 0 0 1 0 0)">
					<path id="s_142_" fill-opacity="0.09" d="M360,140l-40-20l40-20V140z"/>
				</g>
				<g>
					<path id="s_143_" fill-opacity="0.06" d="M320,120l40-20l-40-20V120z"/>
				</g>
				<g transform="matrix(-1 0 0 1 0 0)">
					<path id="s_144_" fill-opacity="0.03" d="M360,100l-40-20l40-20V100z"/>
				</g>
				<g>
					<path id="s_145_" fill-opacity="0.06" d="M320,80l40-20l-40-20V80z"/>
				</g>
				<g transform="matrix(-1 0 0 1 0 0)">
					<path id="s_146_" fill-opacity="0.06" d="M360,60l-40-20l40-20V60z"/>
				</g>
				<g>
					<path id="s_147_" fill-opacity="0.06" d="M360,180l40-20l-40-20V180z"/>
				</g>
				<g transform="matrix(-1 0 0 1 0 0)">
					<path id="s_148_" fill-opacity="0.06" d="M400,160l-40-20l40-20V160z"/>
				</g>
				<g>
					<path id="s_149_" fill-opacity="0.03" d="M360,140l40-20l-40-20V140z"/>
				</g>
				<g transform="matrix(-1 0 0 1 0 0)">
					<path id="s_150_" fill-opacity="0.09" d="M400,120l-40-20l40-20V120z"/>
				</g>
				<g>
					<path id="s_151_" fill-opacity="0.09" d="M360,100l40-20l-40-20V100z"/>
				</g>
				<g transform="matrix(-1 0 0 1 0 0)">
					<path id="s_152_" fill-opacity="0.03" d="M400,80l-40-20l40-20V80z"/>
				</g>
				<g>
					<path id="s_153_" fill-opacity="0.06" d="M360,60l40-20l-40-20V60z"/>
				</g>
				<g transform="matrix(-1 0 0 1 0 0)">
					<path id="s_154_" fill-opacity="0.09" d="M440,180l-40-20l40-20V180z"/>
				</g>
				<g>
					<path id="s_155_" fill-opacity="0.12" d="M400,160l40-20l-40-20V160z"/>
				</g>
				<g transform="matrix(-1 0 0 1 0 0)">
					<path id="s_156_" fill-opacity="0.03" d="M440,140l-40-20l40-20V140z"/>
				</g>
				<g>
					<path id="s_157_" fill-opacity="0.06" d="M400,120l40-20l-40-20V120z"/>
				</g>
				<g transform="matrix(-1 0 0 1 0 0)">
					<path id="s_158_" fill-opacity="0.09" d="M440,100l-40-20l40-20V100z"/>
				</g>
				<g>
					<path id="s_159_" fill-opacity="0.03" d="M400,80l40-20l-40-20V80z"/>
				</g>
				<g transform="matrix(-1 0 0 1 0 0)">
					<path id="s_160_" fill-opacity="0.09" d="M440,60l-40-20l40-20V60z"/>
				</g>
				<g>
					<path id="s_161_" fill-opacity="0.06" d="M440,180l40-20l-40-20V180z"/>
				</g>
				<g transform="matrix(-1 0 0 1 0 0)">
					<path id="s_162_" fill-opacity="0.06" d="M480,160l-40-20l40-20V160z"/>
				</g>
				<g>
					<path id="s_163_" fill-opacity="0.12" d="M440,140l40-20l-40-20V140z"/>
				</g>
				<g transform="matrix(-1 0 0 1 0 0)">
					<path id="s_164_" fill-opacity="0.06" d="M480,120l-40-20l40-20V120z"/>
				</g>
				<g>
					<path id="s_165_" fill-opacity="0.09" d="M440,100l40-20l-40-20V100z"/>
				</g>
				<g transform="matrix(-1 0 0 1 0 0)">
					<path id="s_166_" fill-opacity="0.06" d="M480,80l-40-20l40-20V80z"/>
				</g>
				<g transform="matrix(1 0 0 -1 0 0)">
					<path id="s_167_" fill-opacity="0.06" d="M440,60l40-20l-40-20V60z"/>
				</g>
			</g>
			<g>
				<g id="b_4_">
					<g transform="matrix(-1 0 0 1 0 0)">
						<path id="s_168_" fill-opacity="0.06" d="M280,300l-40-20l40-20V300z"/>
					</g>
					<g>
						<path id="s_169_" fill-opacity="0.09" d="M240,280l40-20l-40-20V280z"/>
					</g>
					<g transform="matrix(-1 0 0 1 0 0)">
						<path id="s_170_" fill-opacity="0.09" d="M280,260l-40-20l40-20V260z"/>
					</g>
					<g>
						<path id="s_171_" fill-opacity="0.09" d="M240,240l40-20l-40-20V240z"/>
					</g>
					<g transform="matrix(-1 0 0 1 0 0)">
						<path id="s_172_" fill-opacity="0.12" d="M280,220l-40-20l40-20V220z"/>
					</g>
					<g>
						<path id="s_173_" fill-opacity="0.06" d="M240,200l40-20l-40-20V200z"/>
					</g>
					<g transform="matrix(-1 0 0 1 0 0)">
						<path id="s_174_" fill-opacity="0.06" d="M280,180l-40-20l40-20V180z"/>
					</g>
					<g>
						<path id="s_175_" fill-opacity="0.09" d="M280,300l40-20l-40-20V300z"/>
					</g>
					<g transform="matrix(-1 0 0 1 0 0)">
						<path id="s_176_" fill-opacity="0.12" d="M320,280l-40-20l40-20V280z"/>
					</g>
					<g>
						<path id="s_177_" fill-opacity="0.09" d="M280,260l40-20l-40-20V260z"/>
					</g>
					<g transform="matrix(-1 0 0 1 0 0)">
						<path id="s_178_" fill-opacity="0.06" d="M320,240l-40-20l40-20V240z"/>
					</g>
					<g>
						<path id="s_179_" fill-opacity="0.03" d="M280,220l40-20l-40-20V220z"/>
					</g>
					<g transform="matrix(-1 0 0 1 0 0)">
						<path id="s_180_" fill-opacity="0.06" d="M320,200l-40-20l40-20V200z"/>
					</g>
					<g>
						<path id="s_181_" fill-opacity="0.09" d="M280,180l40-20l-40-20V180z"/>
					</g>
					<g transform="matrix(-1 0 0 1 0 0)">
						<path id="s_182_" fill-opacity="0.06" d="M360,300l-40-20l40-20V300z"/>
					</g>
					<g>
						<path id="s_183_" fill-opacity="0.06" d="M320,280l40-20l-40-20V280z"/>
					</g>
					<g transform="matrix(-1 0 0 1 0 0)">
						<path id="s_184_" fill-opacity="0.09" d="M360,260l-40-20l40-20V260z"/>
					</g>
					<g>
						<path id="s_185_" fill-opacity="0.06" d="M320,240l40-20l-40-20V240z"/>
					</g>
					<g transform="matrix(-1 0 0 1 0 0)">
						<path id="s_186_" fill-opacity="0.03" d="M360,220l-40-20l40-20V220z"/>
					</g>
					<g>
						<path id="s_187_" fill-opacity="0.06" d="M320,200l40-20l-40-20V200z"/>
					</g>
					<g transform="matrix(-1 0 0 1 0 0)">
						<path id="s_188_" fill-opacity="0.06" d="M360,180l-40-20l40-20V180z"/>
					</g>
					<g>
						<path id="s_189_" fill-opacity="0.06" d="M360,300l40-20l-40-20V300z"/>
					</g>
					<g transform="matrix(-1 0 0 1 0 0)">
						<path id="s_190_" fill-opacity="0.06" d="M400,280l-40-20l40-20V280z"/>
					</g>
					<g>
						<path id="s_191_" fill-opacity="0.03" d="M360,260l40-20l-40-20V260z"/>
					</g>
					<g transform="matrix(-1 0 0 1 0 0)">
						<path id="s_192_" fill-opacity="0.09" d="M400,240l-40-20l40-20V240z"/>
					</g>
					<g>
						<path id="s_193_" fill-opacity="0.09" d="M360,220l40-20l-40-20V220z"/>
					</g>
					<g transform="matrix(-1 0 0 1 0 0)">
						<path id="s_194_" fill-opacity="0.03" d="M400,200l-40-20l40-20V200z"/>
					</g>
					<g>
						<path id="s_195_" fill-opacity="0.06" d="M360,180l40-20l-40-20V180z"/>
					</g>
					<g transform="matrix(-1 0 0 1 0 0)">
						<path id="s_196_" fill-opacity="0.09" d="M440,300l-40-20l40-20V300z"/>
					</g>
					<g>
						<path id="s_197_" fill-opacity="0.12" d="M400,280l40-20l-40-20V280z"/>
					</g>
					<g transform="matrix(-1 0 0 1 0 0)">
						<path id="s_198_" fill-opacity="0.03" d="M440,260l-40-20l40-20V260z"/>
					</g>
					<g>
						<path id="s_199_" fill-opacity="0.06" d="M400,240l40-20l-40-20V240z"/>
					</g>
					<g transform="matrix(-1 0 0 1 0 0)">
						<path id="s_200_" fill-opacity="0.09" d="M440,220l-40-20l40-20V220z"/>
					</g>
					<g>
						<path id="s_201_" fill-opacity="0.03" d="M400,200l40-20l-40-20V200z"/>
					</g>
					<g transform="matrix(-1 0 0 1 0 0)">
						<path id="s_202_" fill-opacity="0.09" d="M440,180l-40-20l40-20V180z"/>
					</g>
					<g>
						<path id="s_203_" fill-opacity="0.06" d="M440,300l40-20l-40-20V300z"/>
					</g>
					<g transform="matrix(-1 0 0 1 0 0)">
						<path id="s_204_" fill-opacity="0.06" d="M480,280l-40-20l40-20V280z"/>
					</g>
					<g>
						<path id="s_205_" fill-opacity="0.12" d="M440,260l40-20l-40-20V260z"/>
					</g>
					<g transform="matrix(-1 0 0 1 0 0)">
						<path id="s_206_" fill-opacity="0.06" d="M480,240l-40-20l40-20V240z"/>
					</g>
					<g>
						<path id="s_207_" fill-opacity="0.09" d="M440,220l40-20l-40-20V220z"/>
					</g>
					<g transform="matrix(-1 0 0 1 0 0)">
						<path id="s_208_" fill-opacity="0.06" d="M480,200l-40-20l40-20V200z"/>
					</g>
					<g transform="matrix(1 0 0 -1 0 0)">
						<path id="s_209_" fill-opacity="0.06" d="M440,180l40-20l-40-20V180z"/>
					</g>
				</g>
			</g>
		</g>
	</g>
</g>
</svg>
